<?xml version="1.0" encoding="utf-8"?>
<!-- Generator: Adobe Illustrator 24.2.1, SVG Export Plug-In . SVG Version: 6.00 Build 0)  -->
<svg version="1.1" xmlns="http://www.w3.org/2000/svg" xmlns:xlink="http://www.w3.org/1999/xlink" x="0px" y="0px"
	 viewBox="0 0 1080 1080" style="enable-background:new 0 0 1080 1080;" xml:space="preserve">
<style type="text/css">
	.st0{display:none;}
	.st1{fill:#B8433B;}
	.st2{fill:none;stroke:#B8433B;stroke-width:10;stroke-miterlimit:10;}
	.st3{fill:#778F9D;}
	.st4{fill:#FFFFFF;}
	.st5{font-family:'TamrinRegular';}
	.st6{font-size:38.0112px;}
	.st7{font-size:34.8138px;}
	.st8{font-size:37.8207px;}
	.st9{font-size:35.6556px;}
	.st10{font-size:35.5188px;}
	.st11{display:inline;fill:#B8433B;}
	.st12{display:inline;fill:none;stroke:#B8433B;stroke-width:10;stroke-miterlimit:10;}
	.st13{display:inline;fill:#778F9D;}
	.st14{display:inline;}
	.st15{clip-path:url(#SVGID_2_);}
	.st16{clip-path:url(#SVGID_8_);fill:#B86C3B;}
	.st17{clip-path:url(#SVGID_8_);fill:none;stroke:#B86C3B;stroke-width:10;stroke-miterlimit:10;}
	.st18{clip-path:url(#SVGID_8_);fill:#695757;}
	.st19{font-size:33.7454px;}
	.st20{font-size:31.953px;}
	.st21{font-size:36.0406px;}
	.st22{font-size:29.4922px;}
	.st23{font-size:29.6429px;}
	.st24{clip-path:url(#SVGID_10_);fill:#FFFFFF;}
	.st25{clip-path:url(#SVGID_14_);}
	.st26{clip-path:url(#SVGID_20_);fill:#788C9E;}
	.st27{clip-path:url(#SVGID_20_);fill:none;stroke:#788C9E;stroke-width:10;stroke-miterlimit:10;}
	.st28{clip-path:url(#SVGID_20_);fill:#759787;}
	.st29{clip-path:url(#SVGID_22_);fill:#FFFFFF;}
</style>
<g id="Layer_1" class="st0">
	
		<image style="display:inline;overflow:visible;" width="1600" height="900" xlink:href="EF883A9234D39DBD.png"  transform="matrix(0.675 0 0 0.675 250.1703 138.5857)">
	</image>
	
		<image style="display:inline;overflow:visible;" width="1600" height="900" xlink:href="EF883A9234D39DBF.png"  transform="matrix(0.675 0 0 0.675 -646.2823 418.7607)">
	</image>
</g>
<g id="Layer_2">
	<ellipse class="st1" cx="441.9" cy="477.6" rx="17" ry="16.8"/>
	
		<ellipse transform="matrix(0.8594 -0.5113 0.5113 0.8594 -317.9886 257.703)" class="st2" cx="309.6" cy="707.1" rx="89.5" ry="266.5"/>
	<ellipse class="st2" cx="311.6" cy="707.1" rx="268.5" ry="89.5"/>
	
		<ellipse transform="matrix(0.4819 -0.8762 0.8762 0.4819 -459.1566 637.6591)" class="st2" cx="309.6" cy="707.1" rx="266.5" ry="89.5"/>
	<ellipse class="st3" cx="309.9" cy="707.1" rx="149" ry="67.5"/>
	<g id="Layer_3">
		<text transform="matrix(0.8572 -0.2308 0.26 0.9656 183.4873 716.5859)" class="st4 st5 st6">G</text>
		<text transform="matrix(0.9095 -0.1234 0.1344 0.9909 231.1068 704.3739)" class="st4 st5 st7">W</text>
		<text transform="matrix(0.9376 0.1704 -0.1788 0.9839 344.189 697.4429)" class="st4 st5 st8">C</text>
		<text transform="matrix(0.8271 0 0 1 294.4554 696.8955)" class="st4 st5 st9">A</text>
		<text transform="matrix(0.7802 0.2962 -0.3549 0.9349 394.2479 704.4791)" class="st4 st5 st10">H</text>
		<g>
			<g>
				<path class="st4" d="M255.5,716.2c2.9,5.8,5.8,12.4,8.7,19.7c-1.8-0.4-3.5-0.9-5.3-1.3c-0.8-2-1.7-3.9-2.5-5.7
					c-3.4-0.7-6.8-1.4-10.1-2.3c-0.9,1.2-1.7,2.3-2.6,3.3c-0.9-0.3-1.7-0.6-2.6-1c3-3.1,6-7.4,9.2-12.7
					C252,716.2,253.8,716.2,255.5,716.2z M247.7,724.7c2.5,0.5,5,0.9,7.4,1.3c-1.2-2.6-2.4-5.1-3.6-7.4
					C250.2,720.9,248.9,722.9,247.7,724.7z"/>
				<path class="st4" d="M279.2,716.4c0,2.1-0.1,4.2-0.1,6.4c1.1,0.1,2.3,0.1,3.4,0.2c0,1.1,0,2.2-0.1,3.3c-1.1-0.1-2.3-0.2-3.4-0.2
					c0,1.1,0,2.1-0.1,3.2c0,1.4,0,2.7,0.1,3.8c0.2,1.2,0.6,2.1,1.4,2.6c1,0.5,2.2,0.3,3.3-0.8c0.2,1,0.4,2.1,0.6,3.1
					c-1.3,1.4-2.9,1.2-4.5,0.9c-1.5-0.2-2.9-1.3-3.9-2.9c-0.7-1.1-1.1-2.1-1.3-3.2c-0.2-1.2-0.3-2.5-0.2-4.1c0-1,0-2,0.1-3.1
					c-1.1-0.1-2.2-0.2-3.4-0.3c0-1,0-2,0.1-3c1.1,0.1,2.2,0.1,3.4,0.2c0-2.1,0.1-4.1,0.1-6.2C276.2,716.4,277.7,716.4,279.2,716.4z"
					/>
				<path class="st4" d="M305.8,724.9c1,0.7,1.8,1.7,2.7,3c-3,3-6.1,6.1-9.2,9c0.6,0.3,1.2,0.5,1.9,0.6c2.9,0.5,6.3-0.5,7.7-1.9
					c0.3,1.2,0.6,2.4,0.9,3.6c-2.1,1.3-4.8,1.9-6.5,1.8c-2.4-0.1-5.5-0.2-7.9-1.8c-2-1.3-3.4-3.5-3.4-7.4c0-3.1,1.3-5.1,3.1-6.4
					c2-1.4,4.7-1.9,7-1.9C303.5,723.7,304.7,724.1,305.8,724.9z M297.7,728.7c-0.8,0.8-1.3,1.9-1.3,3.4c0,1.1,0.2,2,0.7,2.8
					c2.5-2.3,4.9-4.6,7.3-7c-0.7-0.7-1.6-0.7-2.5-0.7C300.5,727.1,298.8,727.6,297.7,728.7z"/>
				<path class="st4" d="M317.9,716.9c1.5,0,3,0,4.5,0.1c0,7.9,0.1,15.8,0.1,23.7c-1.5,0.1-3,0.2-4.6,0.3
					C317.9,732.9,317.9,724.9,317.9,716.9z"/>
				<path class="st4" d="M344.7,724.1c1,0.6,1.8,1.3,2.7,2.3c-3,2.8-5.9,5.8-8.9,8.9c0.6,0.2,1.2,0.2,1.9,0.2c2.9,0,6.2-1.4,7.6-2.8
					c0.3,1,0.6,1.9,0.9,2.8c-2.1,1.5-4.7,2.5-6.4,2.7c-2.3,0.4-5.5,0.9-7.9-0.1c-2-0.8-3.5-2.7-3.6-6.5c0-3,1.2-5,2.9-6.3
					c2-1.5,4.7-2,6.9-2.1C342.3,723.2,343.6,723.5,344.7,724.1z M336.7,728.2c-0.8,0.8-1.3,1.9-1.3,3.2c0,1,0.3,1.8,0.7,2.5
					c2.4-2.5,4.8-4.8,7.1-7.1c-0.7-0.5-1.6-0.5-2.5-0.4C339.4,726.4,337.8,727,336.7,728.2z"/>
				<path class="st4" d="M361.1,717.4c0,0.8,0,1.6,0.1,2.4c-1.5,0-3,0.1-4.5,0.1c0-0.9,0-1.7-0.1-2.6
					C358.1,717.4,359.6,717.4,361.1,717.4z M361.2,722.2c0.1,4,0.2,8,0.3,12c-1.5,0.4-3,0.8-4.5,1.1c-0.1-4.3-0.2-8.6-0.3-12.8
					C358.2,722.4,359.7,722.3,361.2,722.2z"/>
				<path class="st4" d="M373.6,721.2c0.4,0.2,0.7,0.4,1.1,0.6c1.9-0.7,4-1.1,5.4-1.2c0.7-0.1,1.5-0.1,2.2-0.2
					c-0.2,0.5-0.3,1-0.5,1.5c-0.4,0-0.8,0.1-1.3,0.1c-2.9,0.4-5.8,1.7-5.8,3c0,1.7,0.1,3.4,0.1,5.1c-1.5,0.5-2.9,1-4.4,1.4
					c-0.1-3.4-0.1-6.7-0.2-10.1C371.3,721.4,372.4,721.3,373.6,721.2z"/>
			</g>
		</g>
	</g>
</g>
<g id="Layer_2_copy_2" class="st0">
	<ellipse class="st11" cx="1072.5" cy="-184" rx="17" ry="16.8"/>
	
		<ellipse transform="matrix(0.8594 -0.5113 0.5113 0.8594 108.9386 487.1482)" class="st12" cx="940.3" cy="45.5" rx="89.5" ry="266.5"/>
	<ellipse class="st12" cx="942.3" cy="45.5" rx="268.5" ry="89.5"/>
	
		<ellipse transform="matrix(0.4819 -0.8762 0.8762 0.4819 447.3484 847.4977)" class="st12" cx="940.3" cy="45.5" rx="266.5" ry="89.5"/>
	<ellipse class="st13" cx="940.5" cy="45.5" rx="149" ry="67.5"/>
	<g id="Layer_3_copy_2" class="st14">
		<text transform="matrix(0.8572 -0.2308 0.26 0.9656 814.1753 54.9818)" class="st4 st5 st6">G</text>
		<text transform="matrix(0.9095 -0.1234 0.1344 0.9909 861.7947 42.7699)" class="st4 st5 st7">W</text>
		<text transform="matrix(0.9376 0.1704 -0.1788 0.9839 974.877 35.8388)" class="st4 st5 st8">C</text>
		<text transform="matrix(0.8271 0 0 1 925.1434 35.2914)" class="st4 st5 st9">A</text>
		<text transform="matrix(0.7802 0.2962 -0.3549 0.9349 1024.9358 42.8751)" class="st4 st5 st10">H</text>
		<g>
			<g>
				<path class="st4" d="M886.2,54.6c2.9,5.8,5.8,12.4,8.7,19.7c-1.8-0.4-3.5-0.9-5.3-1.3c-0.8-2-1.7-3.9-2.5-5.7
					c-3.4-0.7-6.8-1.4-10.1-2.3c-0.9,1.2-1.7,2.3-2.6,3.3c-0.9-0.3-1.7-0.6-2.6-1c3-3.1,6-7.4,9.2-12.7
					C882.7,54.6,884.4,54.6,886.2,54.6z M878.4,63.1c2.5,0.5,5,0.9,7.4,1.3c-1.2-2.6-2.4-5.1-3.6-7.4
					C880.9,59.3,879.6,61.3,878.4,63.1z"/>
				<path class="st4" d="M909.8,54.8c0,2.1-0.1,4.2-0.1,6.4c1.1,0.1,2.3,0.1,3.4,0.2c0,1.1,0,2.2-0.1,3.3c-1.1-0.1-2.3-0.2-3.4-0.2
					c0,1.1,0,2.1-0.1,3.2c0,1.4,0,2.7,0.1,3.8c0.2,1.2,0.6,2.1,1.4,2.6c1,0.5,2.2,0.3,3.3-0.8c0.2,1,0.4,2.1,0.6,3.1
					c-1.3,1.4-2.9,1.2-4.5,0.9c-1.5-0.2-2.9-1.3-3.9-2.9c-0.7-1.1-1.1-2.1-1.3-3.2c-0.2-1.2-0.3-2.5-0.2-4.1c0-1,0-2,0.1-3.1
					c-1.1-0.1-2.2-0.2-3.4-0.3c0-1,0-2,0.1-3c1.1,0.1,2.2,0.1,3.4,0.2c0-2.1,0.1-4.1,0.1-6.2C906.8,54.8,908.3,54.8,909.8,54.8z"/>
				<path class="st4" d="M936.5,63.3c1,0.7,1.8,1.7,2.7,3c-3,3-6.1,6.1-9.2,9c0.6,0.3,1.2,0.5,1.9,0.6c2.9,0.5,6.3-0.5,7.7-1.9
					c0.3,1.2,0.6,2.4,0.9,3.6c-2.1,1.3-4.8,1.9-6.5,1.8c-2.4-0.1-5.5-0.2-7.9-1.8c-2-1.3-3.4-3.5-3.4-7.4c0-3.1,1.3-5.1,3.1-6.4
					c2-1.4,4.7-1.9,7-1.9C934.2,62.1,935.4,62.5,936.5,63.3z M928.4,67.1c-0.8,0.8-1.3,1.9-1.3,3.4c0,1.1,0.2,2,0.7,2.8
					c2.5-2.3,4.9-4.6,7.3-7c-0.7-0.7-1.6-0.7-2.5-0.7C931.2,65.5,929.5,66,928.4,67.1z"/>
				<path class="st4" d="M948.6,55.3c1.5,0,3,0,4.5,0.1c0,7.9,0.1,15.8,0.1,23.7c-1.5,0.1-3,0.2-4.6,0.3
					C948.6,71.3,948.6,63.3,948.6,55.3z"/>
				<path class="st4" d="M975.3,62.5c1,0.6,1.8,1.3,2.7,2.3c-3,2.8-5.9,5.8-8.9,8.9c0.6,0.2,1.2,0.2,1.9,0.2c2.9,0,6.2-1.4,7.6-2.8
					c0.3,1,0.6,1.9,0.9,2.8c-2.1,1.5-4.7,2.5-6.4,2.7c-2.3,0.4-5.5,0.9-7.9-0.1c-2-0.8-3.5-2.7-3.6-6.5c0-3,1.2-5,2.9-6.3
					c2-1.5,4.7-2,6.9-2.1C973,61.6,974.2,61.9,975.3,62.5z M967.4,66.6c-0.8,0.8-1.3,1.9-1.3,3.2c0,1,0.3,1.8,0.7,2.5
					c2.4-2.5,4.8-4.8,7.1-7.1c-0.7-0.5-1.6-0.5-2.5-0.4C970.1,64.8,968.5,65.4,967.4,66.6z"/>
				<path class="st4" d="M991.7,55.8c0,0.8,0,1.6,0.1,2.4c-1.5,0-3,0.1-4.5,0.1c0-0.9,0-1.7-0.1-2.6
					C988.8,55.8,990.2,55.8,991.7,55.8z M991.9,60.6c0.1,4,0.2,8,0.3,12c-1.5,0.4-3,0.8-4.5,1.1c-0.1-4.3-0.2-8.6-0.3-12.8
					C988.9,60.8,990.4,60.7,991.9,60.6z"/>
				<path class="st4" d="M1004.2,59.6c0.4,0.2,0.7,0.4,1.1,0.6c1.9-0.7,4-1.1,5.4-1.2c0.7-0.1,1.5-0.1,2.2-0.2
					c-0.2,0.5-0.3,1-0.5,1.5c-0.4,0-0.8,0.1-1.3,0.1c-2.9,0.4-5.8,1.7-5.8,3c0,1.7,0.1,3.4,0.1,5.1c-1.5,0.5-2.9,1-4.4,1.4
					c-0.1-3.4-0.1-6.7-0.2-10.1C1002,59.8,1003.1,59.7,1004.2,59.6z"/>
			</g>
		</g>
	</g>
</g>
<g id="Layer_9">
	<g>
		<g>
			<defs>
				<rect id="SVGID_1_" x="218.7" y="164.8" width="1080" height="1080"/>
			</defs>
			<clipPath id="SVGID_2_">
				<use xlink:href="#SVGID_1_"  style="overflow:visible;"/>
			</clipPath>
			<g class="st15">
				<defs>
					<polygon id="SVGID_3_" points="489.8,1004.2 1298.7,1008.6 1308.7,416.4 482.5,417.3 					"/>
				</defs>
				<clipPath id="SVGID_4_">
					<use xlink:href="#SVGID_3_"  style="overflow:visible;"/>
				</clipPath>
			</g>
			<g class="st15">
				<defs>
					<polygon id="SVGID_5_" points="218.7,1244.8 650.2,1244.8 659.5,682.1 218.7,681.2 					"/>
				</defs>
				<clipPath id="SVGID_6_">
					<use xlink:href="#SVGID_5_"  style="overflow:visible;"/>
				</clipPath>
			</g>
			<g class="st15">
				<defs>
					<rect id="SVGID_7_" x="218.7" y="164.8" width="1080" height="1080"/>
				</defs>
				<clipPath id="SVGID_8_">
					<use xlink:href="#SVGID_7_"  style="overflow:visible;"/>
				</clipPath>
				<path class="st16" d="M865,475.1c0-9.3,7.6-16.8,17-16.8c9.4,0,17,7.5,17,16.8c0,9.2-7.6,16.8-17,16.8
					C872.6,491.9,865,484.4,865,475.1"/>
				
					<ellipse transform="matrix(0.8594 -0.5113 0.5113 0.8594 -254.8287 482.3744)" class="st17" cx="749.7" cy="704.6" rx="89.5" ry="266.5"/>
				<path class="st17" d="M751.7,794.1c-148.3,0-268.5-40.1-268.5-89.5c0-49.4,120.2-89.5,268.5-89.5s268.5,40.1,268.5,89.5
					S900,794.1,751.7,794.1z"/>
				<path class="st17" d="M671.3,661.4c70.9-129,163.5-214.2,206.8-190.4c43.3,23.8,20.9,147.7-50,276.6
					c-70.9,129-163.5,214.2-206.8,190.4C578,914.3,600.4,790.4,671.3,661.4z"/>
				<path class="st18" d="M601,704.6c0-37.3,66.7-67.5,149-67.5c82.3,0,149,30.2,149,67.5c0,37.3-66.7,67.5-149,67.5
					C667.7,772.1,601,741.8,601,704.6"/>
			</g>
			<g class="st15">
				<text transform="matrix(0.9656 -0.26 0.2929 1.0877 623.5874 714.0449)" class="st4 st5 st19">G</text>
			</g>
			<g class="st15">
				<text transform="matrix(0.9909 -0.1344 0.1465 1.0796 671.1829 701.8675)" class="st4 st5 st20">W</text>
			</g>
			<g class="st15">
				<text transform="matrix(0.9839 0.1788 -0.1877 1.0325 784.3417 694.9553)" class="st4 st5 st21">C</text>
			</g>
			<g class="st15">
				<text transform="matrix(1 0 0 1.209 734.5799 694.3812)" class="st4 st5 st22">A</text>
			</g>
			<g class="st15">
				<text transform="matrix(0.9349 0.3549 -0.4253 1.1202 834.3239 701.9738)" class="st4 st5 st23">H</text>
			</g>
			<g class="st15">
				<defs>
					<rect id="SVGID_9_" x="218.7" y="164.8" width="1080" height="1080"/>
				</defs>
				<clipPath id="SVGID_10_">
					<use xlink:href="#SVGID_9_"  style="overflow:visible;"/>
				</clipPath>
				<path class="st24" d="M695.6,713.7c2.9,5.8,5.8,12.4,8.7,19.6c-1.8-0.4-3.5-0.9-5.3-1.3c-0.8-2-1.7-3.9-2.5-5.7
					c-3.4-0.7-6.8-1.4-10.1-2.2c-0.9,1.2-1.7,2.3-2.6,3.3c-0.9-0.3-1.7-0.6-2.6-1c3-3.1,6-7.4,9.2-12.7
					C692.1,713.7,693.9,713.7,695.6,713.7 M687.8,722.2c2.5,0.5,5,0.9,7.4,1.3c-1.2-2.6-2.4-5.1-3.6-7.4
					C690.3,718.4,689.1,720.4,687.8,722.2"/>
				<path class="st24" d="M716.8,713.9c0,2.1-0.1,4.2-0.1,6.2c1.1,0.1,2.3,0.1,3.4,0.2c0,1.1,0,2.1-0.1,3.2
					c-1.1-0.1-2.3-0.2-3.4-0.3c0,1,0,2.1-0.1,3.1c0,1.4,0,2.7,0.1,3.8c0.2,1.2,0.6,2.1,1.4,2.6c1,0.5,2.2,0.3,3.3-0.8
					c0.2,1,0.4,2,0.6,3.1c-1.3,1.4-2.9,1.1-4.5,0.9c-1.5-0.2-2.9-1.3-3.9-2.9c-0.7-1.1-1.1-2.1-1.3-3.2c-0.3-1.4-0.3-3-0.2-5.2
					c-0.7-0.7-1.1-1.2-1.7-1.9c-0.5,0-1.1-0.1-1.6-0.2c0-1,0-2,0.1-2.9c1.1,0.1,2.2,0.1,3.4,0.2c0-2,0.1-4,0.1-6
					C713.8,713.9,715.3,713.9,716.8,713.9"/>
				<path class="st24" d="M743.4,722.3c1,0.7,1.8,1.7,2.7,3c-3,3-6.1,6-9.2,8.8c0.6,0.3,1.2,0.5,1.9,0.6c2.9,0.5,6.3-0.4,7.7-1.8
					c0.3,1.2,0.6,2.4,0.9,3.6c-2.1,1.3-4.8,1.8-6.5,1.8c-2.4-0.1-5.5-0.3-7.9-1.8c-2-1.3-3.4-3.5-3.4-7.3c0-3.1,1.3-5,3.1-6.2
					c2-1.4,4.8-1.8,7-1.8C741.1,721.1,742.3,721.5,743.4,722.3 M735.3,726.1c-0.8,0.8-1.3,1.9-1.3,3.3c0,1.1,0.2,2,0.7,2.7
					c2.5-2.2,4.9-4.6,7.3-6.9c-0.7-0.7-1.6-0.7-2.5-0.7C738.1,724.4,736.5,724.9,735.3,726.1"/>
				<path class="st24" d="M755.5,714.4c1.5,0,3,0,4.5,0.1c0,7.8,0.1,15.7,0.1,23.5c-1.5,0.1-3,0.2-4.6,0.2
					C755.5,730.3,755.5,722.3,755.5,714.4"/>
				<path class="st24" d="M782.3,721.6c1,0.6,1.8,1.3,2.7,2.3c-3,2.8-5.9,5.7-8.9,8.8c0.6,0.2,1.2,0.2,1.9,0.2
					c2.9,0,6.2-1.4,7.6-2.8c0.3,1,0.6,1.9,0.9,2.8c-2.1,1.5-4.7,2.4-6.4,2.7c-2.3,0.4-5.5,0.9-7.9-0.1c-2-0.8-3.5-2.7-3.6-6.4
					c0-3,1.2-5,2.9-6.3c2-1.5,4.7-2,6.9-2.1C779.9,720.7,781.2,721,782.3,721.6 M774.3,725.6c-0.8,0.8-1.3,1.9-1.3,3.2
					c0,1,0.3,1.8,0.7,2.5c2.4-2.4,4.8-4.8,7.1-7.1c-0.7-0.5-1.6-0.5-2.5-0.4C777,723.9,775.4,724.5,774.3,725.6"/>
				<path class="st24" d="M798.7,714.9c0,0.8,0,1.6,0.1,2.4c-1.5,0-3,0.1-4.5,0.1c0-0.9,0-1.7-0.1-2.6
					C795.7,714.9,797.2,714.9,798.7,714.9 M798.8,719.7c0.1,4,0.2,8,0.3,12c-1.5,0.4-3,0.8-4.5,1.1c-0.1-4.3-0.2-8.5-0.3-12.8
					C795.8,719.9,797.3,719.8,798.8,719.7"/>
				<path class="st24" d="M811.2,718.7c0.4,0.2,0.7,0.4,1.1,0.6c1.9-0.7,4-1.1,5.4-1.2c0.7-0.1,1.5-0.1,2.2-0.2
					c-0.2,0.5-0.3,1-0.5,1.5c-0.4,0-0.8,0.1-1.3,0.1c-3.6,0.5-7.3,2.4-5.1,4.1c-0.3,1.8-0.3,2.2-0.5,4c-1.5,0.5-3,1-4.4,1.4
					c-0.1-3.4-0.1-6.7-0.2-10.1C808.9,718.9,810.1,718.8,811.2,718.7"/>
			</g>
			<g class="st15">
				<defs>
					<polygon id="SVGID_11_" points="218.7,1244.8 519,1244.8 528.3,361.7 218.7,360.8 					"/>
				</defs>
				<clipPath id="SVGID_12_">
					<use xlink:href="#SVGID_11_"  style="overflow:visible;"/>
				</clipPath>
			</g>
		</g>
	</g>
</g>
<g id="Layer_10">
	<g>
		<g>
			<defs>
				<rect id="SVGID_13_" x="-0.1" y="-200.8" width="1080" height="1080"/>
			</defs>
			<clipPath id="SVGID_14_">
				<use xlink:href="#SVGID_13_"  style="overflow:visible;"/>
			</clipPath>
			<g class="st25">
				<defs>
					<rect id="SVGID_15_" x="247.9" y="35.4" width="832" height="607.5"/>
				</defs>
				<clipPath id="SVGID_16_">
					<use xlink:href="#SVGID_15_"  style="overflow:visible;"/>
				</clipPath>
			</g>
			<g class="st25">
				<defs>
					<rect id="SVGID_17_" x="-0.1" y="315.6" width="431.5" height="563.6"/>
				</defs>
				<clipPath id="SVGID_18_">
					<use xlink:href="#SVGID_17_"  style="overflow:visible;"/>
				</clipPath>
			</g>
			<g class="st25">
				<defs>
					<rect id="SVGID_19_" x="-0.1" y="-200.8" width="1080" height="1080"/>
				</defs>
				<clipPath id="SVGID_20_">
					<use xlink:href="#SVGID_19_"  style="overflow:visible;"/>
				</clipPath>
				<path class="st26" d="M637,108.6c0-9.3,7.6-16.8,17-16.8c9.4,0,17,7.5,17,16.8c0,9.2-7.6,16.8-17,16.8
					C644.6,125.4,637,117.9,637,108.6"/>
				
					<ellipse transform="matrix(0.8594 -0.5113 0.5113 0.8594 -99.4935 314.2686)" class="st27" cx="521.7" cy="338.1" rx="89.5" ry="266.5"/>
				<path class="st27" d="M523.7,427.6c-148.3,0-268.5-40.1-268.5-89.5c0-49.4,120.2-89.5,268.5-89.5s268.5,40.1,268.5,89.5
					S672,427.6,523.7,427.6z"/>
				<path class="st27" d="M443.3,294.9c70.9-129,163.5-214.2,206.8-190.4c43.3,23.8,20.9,147.7-50,276.6
					c-70.9,129-163.5,214.2-206.8,190.4C350,547.8,372.4,423.9,443.3,294.9z"/>
				<path class="st28" d="M373,338.1c0-37.3,66.7-67.5,149-67.5c82.3,0,149,30.2,149,67.5s-66.7,67.5-149,67.5
					C439.7,405.6,373,375.3,373,338.1"/>
			</g>
			<g class="st25">
				<text transform="matrix(0.9656 -0.26 0.2929 1.0877 395.5699 347.5298)" class="st4 st5 st19">G</text>
			</g>
			<g class="st25">
				<text transform="matrix(0.9909 -0.1344 0.1465 1.0796 443.1657 335.3526)" class="st4 st5 st20">W</text>
			</g>
			<g class="st25">
				<text transform="matrix(0.9839 0.1788 -0.1877 1.0325 556.3243 328.4401)" class="st4 st5 st21">C</text>
			</g>
			<g class="st25">
				<text transform="matrix(1 0 0 1.209 506.5627 327.8659)" class="st4 st5 st22">A</text>
			</g>
			<g class="st25">
				<text transform="matrix(0.9349 0.3549 -0.4253 1.1202 606.3071 335.4586)" class="st4 st5 st23">H</text>
			</g>
			<g class="st25">
				<defs>
					<rect id="SVGID_21_" x="-0.1" y="-200.8" width="1080" height="1080"/>
				</defs>
				<clipPath id="SVGID_22_">
					<use xlink:href="#SVGID_21_"  style="overflow:visible;"/>
				</clipPath>
				<path class="st29" d="M467.6,347.2c2.9,5.8,5.8,12.4,8.7,19.6c-1.8-0.4-3.5-0.9-5.3-1.3c-0.8-2-1.7-3.9-2.5-5.7
					c-3.4-0.7-6.8-1.4-10.1-2.2c-0.9,1.2-1.7,2.3-2.6,3.3c-0.9-0.3-1.7-0.6-2.6-1c3-3.1,6-7.4,9.2-12.7
					C464.1,347.2,465.9,347.2,467.6,347.2 M459.8,355.7c2.5,0.5,5,0.9,7.4,1.3c-1.2-2.6-2.4-5.1-3.6-7.4
					C462.3,351.8,461,353.9,459.8,355.7"/>
				<path class="st29" d="M488.8,347.4c0,2.1-0.1,4.2-0.1,6.2c1.1,0.1,2.3,0.1,3.4,0.2c0,1.1,0,2.1-0.1,3.2
					c-1.1-0.1-2.3-0.2-3.4-0.3c0,1,0,2.1-0.1,3.1c0,1.4,0,2.7,0.1,3.8c0.2,1.2,0.6,2.1,1.4,2.6c1,0.5,2.2,0.3,3.3-0.8
					c0.2,1,0.4,2,0.6,3.1c-1.3,1.4-2.9,1.1-4.5,0.9c-1.5-0.2-2.9-1.3-3.9-2.9c-0.7-1.1-1.1-2.1-1.3-3.2c-0.2-1.2-0.3-2.4-0.2-4
					c0-1,0-2,0.1-3c-1.1-0.1-2.2-0.2-3.4-0.3c0-1,0-2,0.1-2.9c1.1,0.1,2.2,0.1,3.4,0.2c0-2,0.1-4,0.1-6
					C485.8,347.4,487.3,347.4,488.8,347.4"/>
				<path class="st29" d="M515.4,355.7c1,0.7,1.8,1.7,2.7,3c-3,3-6.1,6-9.2,8.8c0.6,0.3,1.2,0.5,1.9,0.6c2.9,0.5,6.3-0.4,7.7-1.8
					c0.3,1.2,0.6,2.4,0.9,3.6c-2.1,1.3-4.8,1.8-6.5,1.8c-2.4-0.1-5.5-0.3-7.9-1.8c-2-1.3-3.4-3.5-3.4-7.3c0-3.1,1.3-5,3.1-6.2
					c2-1.4,4.8-1.8,7-1.8C513.1,354.6,514.3,355,515.4,355.7 M507.3,359.5c-0.8,0.8-1.3,1.9-1.3,3.3c0,1.1,0.2,2,0.7,2.7
					c2.5-2.2,4.9-4.6,7.3-6.9c-0.7-0.7-1.6-0.7-2.5-0.7C510.1,357.9,508.4,358.4,507.3,359.5"/>
				<path class="st29" d="M527.5,347.9c1.5,0,3,0,4.5,0.1c0,7.8,0.1,15.7,0.1,23.5c-1.5,0.1-3,0.2-4.6,0.2
					C527.5,363.8,527.5,355.8,527.5,347.9"/>
				<path class="st29" d="M554.3,355.1c1,0.6,1.8,1.3,2.7,2.3c-3,2.8-5.9,5.7-8.9,8.8c0.6,0.2,1.2,0.2,1.9,0.2
					c2.9,0,6.2-1.4,7.6-2.8c0.3,1,0.6,1.9,0.9,2.8c-2.1,1.5-4.7,2.4-6.4,2.7c-2.3,0.4-5.5,0.9-7.9-0.1c-2-0.8-3.5-2.7-3.6-6.4
					c0-3,1.2-5,2.9-6.3c2-1.5,4.7-2,6.9-2.1C551.9,354.2,553.2,354.5,554.3,355.1 M546.3,359.1c-0.8,0.8-1.3,1.9-1.3,3.2
					c0,1,0.3,1.8,0.7,2.5c2.4-2.4,4.8-4.8,7.1-7.1c-0.7-0.5-1.6-0.5-2.5-0.4C549,357.4,547.4,358,546.3,359.1"/>
				<path class="st29" d="M570.7,348.4c0,0.8,0,1.6,0.1,2.4c-1.5,0-3,0.1-4.5,0.1c0-0.9,0-1.7-0.1-2.6
					C567.7,348.4,569.2,348.4,570.7,348.4 M570.8,353.2c0.1,4,0.2,8,0.3,12c-1.5,0.4-3,0.8-4.5,1.1c-0.1-4.3-0.2-8.5-0.3-12.8
					C567.8,353.4,569.3,353.3,570.8,353.2"/>
				<path class="st29" d="M583.2,352.2c0.4,0.2,0.7,0.4,1.1,0.6c1.9-0.7,4-1.1,5.4-1.2c0.7-0.1,1.5-0.1,2.2-0.2
					c-0.2,0.5-0.3,1-0.5,1.5c-0.4,0-0.8,0.1-1.3,0.1c-2.9,0.4-5.8,1.7-5.8,3c0,1.7,0.1,3.4,0.1,5.1c-1.5,0.5-2.9,1-4.4,1.4
					c-0.1-3.4-0.1-6.7-0.2-10.1C580.9,352.4,582,352.3,583.2,352.2"/>
			</g>
		</g>
	</g>
</g>
<g id="Layer_2_copy" class="st0">
	<ellipse class="st11" cx="-174.6" cy="275.8" rx="17" ry="16.8"/>
	
		<ellipse transform="matrix(0.8594 -0.5113 0.5113 0.8594 -301.4646 -85.8425)" class="st12" cx="-306.8" cy="505.3" rx="89.5" ry="266.5"/>
	<ellipse class="st12" cx="-304.8" cy="505.3" rx="268.5" ry="89.5"/>
	
		<ellipse transform="matrix(0.4819 -0.8762 0.8762 0.4819 -601.7111 -7.0639)" class="st12" cx="-306.8" cy="505.3" rx="266.5" ry="89.5"/>
	<ellipse class="st13" cx="-306.6" cy="505.3" rx="149" ry="67.5"/>
	<g id="Layer_3_copy" class="st14">
		<text transform="matrix(0.8572 -0.2308 0.26 0.9656 -432.9554 514.7657)" class="st4 st5 st6">G</text>
		<text transform="matrix(0.9095 -0.1234 0.1344 0.9909 -385.3359 502.5537)" class="st4 st5 st7">W</text>
		<text transform="matrix(0.9376 0.1704 -0.1788 0.9839 -272.2537 495.6227)" class="st4 st5 st8">C</text>
		<text transform="matrix(0.8271 0 0 1 -321.9873 495.0753)" class="st4 st5 st9">A</text>
		<text transform="matrix(0.7802 0.2962 -0.3549 0.9349 -222.1949 502.659)" class="st4 st5 st10">H</text>
		<g>
			<g>
				<path class="st4" d="M-360.9,514.4c2.9,5.8,5.8,12.4,8.7,19.7c-1.8-0.4-3.5-0.9-5.3-1.3c-0.8-2-1.7-3.9-2.5-5.7
					c-3.4-0.7-6.8-1.4-10.1-2.3c-0.9,1.2-1.7,2.3-2.6,3.3c-0.9-0.3-1.7-0.6-2.6-1c3-3.1,6-7.4,9.2-12.7
					C-364.4,514.4-362.7,514.4-360.9,514.4z M-368.8,522.9c2.5,0.5,5,0.9,7.4,1.3c-1.2-2.6-2.4-5.1-3.6-7.4
					C-366.2,519.1-367.5,521.1-368.8,522.9z"/>
				<path class="st4" d="M-337.3,514.6c0,2.1-0.1,4.2-0.1,6.4c1.1,0.1,2.3,0.1,3.4,0.2c0,1.1,0,2.2-0.1,3.3
					c-1.1-0.1-2.3-0.2-3.4-0.2c0,1.1,0,2.1-0.1,3.2c0,1.4,0,2.7,0.1,3.8c0.2,1.2,0.6,2.1,1.4,2.6c1,0.5,2.2,0.3,3.3-0.8
					c0.2,1,0.4,2.1,0.6,3.1c-1.3,1.4-2.9,1.2-4.5,0.9c-1.5-0.2-2.9-1.3-3.9-2.9c-0.7-1.1-1.1-2.1-1.3-3.2c-0.2-1.2-0.3-2.5-0.2-4.1
					c0-1,0-2,0.1-3.1c-1.1-0.1-2.2-0.2-3.4-0.3c0-1,0-2,0.1-3c1.1,0.1,2.2,0.1,3.4,0.2c0-2.1,0.1-4.1,0.1-6.2
					C-340.3,514.6-338.8,514.6-337.3,514.6z"/>
				<path class="st4" d="M-310.7,523c1,0.7,1.8,1.7,2.7,3c-3,3-6.1,6.1-9.2,9c0.6,0.3,1.2,0.5,1.9,0.6c2.9,0.5,6.3-0.5,7.7-1.9
					c0.3,1.2,0.6,2.4,0.9,3.6c-2.1,1.3-4.8,1.9-6.5,1.8c-2.4-0.1-5.5-0.2-7.9-1.8c-2-1.3-3.4-3.5-3.4-7.4c0-3.1,1.3-5.1,3.1-6.4
					c2-1.4,4.7-1.9,7-1.9C-313,521.9-311.7,522.3-310.7,523z M-318.7,526.9c-0.8,0.8-1.3,1.9-1.3,3.4c0,1.1,0.2,2,0.7,2.8
					c2.5-2.3,4.9-4.6,7.3-7c-0.7-0.7-1.6-0.7-2.5-0.7C-316,525.2-317.6,525.8-318.7,526.9z"/>
				<path class="st4" d="M-298.6,515.1c1.5,0,3,0,4.5,0.1c0,7.9,0.1,15.8,0.1,23.7c-1.5,0.1-3,0.2-4.6,0.3
					C-298.5,531.1-298.5,523.1-298.6,515.1z"/>
				<path class="st4" d="M-271.8,522.3c1,0.6,1.8,1.3,2.7,2.3c-3,2.8-5.9,5.8-8.9,8.9c0.6,0.2,1.2,0.2,1.9,0.2
					c2.9,0,6.2-1.4,7.6-2.8c0.3,1,0.6,1.9,0.9,2.8c-2.1,1.5-4.7,2.5-6.4,2.7c-2.3,0.4-5.5,0.9-7.9-0.1c-2-0.8-3.5-2.7-3.6-6.5
					c0-3,1.2-5,2.9-6.3c2-1.5,4.7-2,6.9-2.1C-274.1,521.4-272.9,521.7-271.8,522.3z M-279.7,526.4c-0.8,0.8-1.3,1.9-1.3,3.2
					c0,1,0.3,1.8,0.7,2.5c2.4-2.5,4.8-4.8,7.1-7.1c-0.7-0.5-1.6-0.5-2.5-0.4C-277,524.6-278.6,525.2-279.7,526.4z"/>
				<path class="st4" d="M-255.4,515.6c0,0.8,0,1.6,0.1,2.4c-1.5,0-3,0.1-4.5,0.1c0-0.9,0-1.7-0.1-2.6
					C-258.4,515.6-256.9,515.6-255.4,515.6z M-255.3,520.4c0.1,4,0.2,8,0.3,12c-1.5,0.4-3,0.8-4.5,1.1c-0.1-4.3-0.2-8.6-0.3-12.8
					C-258.3,520.6-256.8,520.5-255.3,520.4z"/>
				<path class="st4" d="M-242.9,519.4c0.4,0.2,0.7,0.4,1.1,0.6c1.9-0.7,4-1.1,5.4-1.2c0.7-0.1,1.5-0.1,2.2-0.2
					c-0.2,0.5-0.3,1-0.5,1.5c-0.4,0-0.8,0.1-1.3,0.1c-2.9,0.4-5.8,1.7-5.8,3c0,1.7,0.1,3.4,0.1,5.1c-1.5,0.5-2.9,1-4.4,1.4
					c-0.1-3.4-0.1-6.7-0.2-10.1C-245.1,519.6-244,519.5-242.9,519.4z"/>
			</g>
		</g>
	</g>
</g>
<g id="Layer_4" class="st0">
	
		<image style="display:inline;overflow:visible;" width="1600" height="900" xlink:href="gwach.JPG"  transform="matrix(0.6386 0 0 1 -719.2878 98.372)">
	</image>
</g>
</svg>
