<svg version="1.1" xml:space="preserve" xmlns:xlink="http://www.w3.org/1999/xlink" xmlns="http://www.w3.org/2000/svg" viewBox="774.592 67.24276169265033 659.984 585.4075723830734" style="max-height: 500px" width="659.984" height="585.4075723830734">

 <g>
  <title>Layer 1</title>
  <g id="Layer_1" class="st0" display="none">
   <image width="1600" height="900" xlink:href="CF21B0013E081103.png" transform="matrix(0.675 0 0 0.675 248 236.25)" id="svg_1" y="-349.99999" x="960.67046"/>
   <image width="1600" height="900" xlink:href="CF21B0013E081101.png" transform="matrix(0.675 0 0 0.675 -648.453 516.425)" id="svg_2" y="-349.99999" x="960.67046"/>
  </g>
  <g id="svg_29" stroke="null">
   <g id="Layer_2" stroke="null">
    <ellipse class="st1" cx="1258.04642" cy="98.02619" rx="19.75419" ry="18.89516" fill="#eaeaea" id="svg_3" stroke="null"/>
    <ellipse transform="matrix(0.998632 -0.575065 0.594136 0.966578 -390.56 306.525)" class="st2" cx="1083.13914" cy="695.71973" rx="89.5" ry="266.5" fill="none" stroke-width="10" stroke-miterlimit="10" id="svg_4" stroke="#eaeaea"/>
    <ellipse class="st2" cx="1106.75257" cy="356.14759" rx="311.99999" ry="100.66172" fill="none" stroke-width="10" stroke-miterlimit="10" id="svg_5" stroke="#eaeaea"/>
    <ellipse transform="matrix(0.559973 -0.985473 1.01815 0.541999 -390.173 749.534)" class="st2" cx="926.32828" cy="958.50128" rx="266.5" ry="89.5" fill="none" stroke-width="10" stroke-miterlimit="10" id="svg_6" stroke="#eaeaea"/>
    <ellipse class="st3" cx="1104.66095" cy="356.14759" rx="173.13966" ry="75.91806" fill="#759787" id="svg_7" stroke="null"/>
   </g>
   <g id="svg_14" stroke="null">
    <path class="st4" d="m1039.23972,366.47557c3.36983,7.02741 6.73966,15.02412 10.1095,23.86897c-2.09162,-0.48465 -4.06704,-1.09046 -6.15866,-1.57511c-0.92961,-2.42325 -1.97542,-4.72533 -2.90503,-6.90625c-3.95084,-0.84814 -7.90168,-1.69627 -11.73631,-2.78673c-1.04581,1.45395 -1.97542,2.78673 -3.02123,3.99835c-1.04581,-0.36349 -1.97542,-0.72697 -3.02123,-1.21162c3.48603,-3.75603 6.97207,-8.96601 10.6905,-15.38761c1.97542,0 3.95084,0 6.04246,0zm-9.06369,10.29879c2.90503,0.60581 5.81006,1.09046 8.59888,1.57511c-1.39441,-3.15022 -2.78883,-6.17928 -4.18324,-8.96601c-1.51061,2.78673 -3.02123,5.20998 -4.41564,7.3909z" fill="#FFFFFF" id="svg_15" stroke="null"/>
   </g>
   <g id="svg_16" stroke="null">
    <path class="st4" d="m1063.17715,368.96732c0,2.54441 -0.1162,5.08882 -0.1162,7.75439c1.27821,0.12116 2.67263,0.12116 3.95084,0.24232c0,1.33278 0,2.66557 -0.1162,3.99835c-1.27821,-0.12116 -2.67263,-0.24232 -3.95084,-0.24232c0,1.33278 0,2.54441 -0.1162,3.87719c0,1.69627 0,3.27138 0.1162,4.60417c0.2324,1.45395 0.69721,2.54441 1.62682,3.15022c1.16201,0.60581 2.55642,0.36349 3.83464,-0.9693c0.2324,1.21162 0.4648,2.54441 0.69721,3.75603c-1.51061,1.69627 -3.36983,1.45395 -5.22905,1.09046c-1.74302,-0.24232 -3.36983,-1.57511 -4.53184,-3.51371c-0.81341,-1.33278 -1.27821,-2.54441 -1.51061,-3.87719c-0.2324,-1.45395 -0.3486,-3.02906 -0.2324,-4.96765c0,-1.21162 0,-2.42325 0.1162,-3.75603c-1.27821,-0.12116 -2.55642,-0.24232 -3.95084,-0.36349c0,-1.21162 0,-2.42325 0.1162,-3.63487c1.27821,0.12116 2.55642,0.12116 3.95084,0.24232c0,-2.54441 0.1162,-4.96765 0.1162,-7.51206c1.74302,0.12116 3.48603,0.12116 5.22905,0.12116z" fill="#FFFFFF" id="svg_17" stroke="null"/>
    <path class="st4" d="m1094.20285,379.26611c1.16201,0.84814 2.09162,2.05976 3.13743,3.63487c-3.48603,3.63487 -7.08827,7.3909 -10.6905,10.9046c0.69721,0.36349 1.39441,0.60581 2.20782,0.72697c3.36983,0.60581 7.32067,-0.60581 8.94749,-2.30208c0.3486,1.45395 0.69721,2.90789 1.04581,4.36184c-2.44022,1.57511 -5.57765,2.30208 -7.55307,2.18092c-2.78883,-0.12116 -6.39106,-0.24232 -9.17989,-2.18092c-2.32402,-1.57511 -3.95084,-4.24068 -3.95084,-8.96601c0,-3.75603 1.51061,-6.17928 3.60223,-7.75439c2.32402,-1.69627 5.46145,-2.30208 8.13408,-2.30208c1.51061,0.24232 3.02123,0.72697 4.29944,1.69627zm-9.41229,4.60417c-0.92961,0.9693 -1.51061,2.30208 -1.51061,4.11952c0,1.33278 0.2324,2.42325 0.81341,3.39254c2.90503,-2.78673 5.69385,-5.57346 8.48268,-8.48136c-0.81341,-0.84814 -1.85922,-0.84814 -2.90503,-0.84814c-1.62682,-0.24232 -3.60223,0.48465 -4.88045,1.81743z" fill="#FFFFFF" id="svg_18" stroke="null"/>
    <path class="st4" d="m1108.26318,369.57313c1.74302,0 3.48603,0 5.22905,0.12116c0,9.57182 0.1162,19.14364 0.1162,28.71546c-1.74302,0.12116 -3.48603,0.24232 -5.34525,0.36349c0,-9.81414 0,-19.50713 0,-29.20011z" fill="#FFFFFF" id="svg_19" stroke="null"/>
   </g>
   <g id="svg_20" stroke="null">
    <path class="st4" d="m1130.45759,370.21644c0,1.26922 0,2.53844 0.1162,3.80766c-1.74302,0 -3.48603,0.15865 -5.22905,0.15865c0,-1.42787 0,-2.6971 -0.1162,-4.12497c1.74302,0.15865 3.48603,0.15865 5.22905,0.15865zm0.2324,7.61533c0.1162,6.34611 0.2324,12.69221 0.3486,19.03832c-1.74302,0.63461 -3.48603,1.26922 -5.22905,1.74518c-0.1162,-6.82206 -0.2324,-13.64413 -0.3486,-20.30754c1.74302,-0.15865 3.48603,-0.31731 5.22905,-0.47596z" fill="#FFFFFF" id="svg_21" stroke="null"/>
   </g>
   <g id="svg_22" stroke="null">
    
    <path class="st4" d="m1160.20508,376.04739c1.16201,0.72697 2.09162,1.57511 3.13743,2.78673c-3.48603,3.39254 -6.85587,7.02741 -10.3419,10.78344c0.69721,0.24232 1.39441,0.24232 2.20782,0.24232c3.36983,0 7.20447,-1.69627 8.83128,-3.39254c0.3486,1.21162 0.69721,2.30208 1.04581,3.39254c-2.44022,1.81743 -5.46145,3.02906 -7.43687,3.27138c-2.67263,0.48465 -6.39106,1.09046 -9.17989,-0.12116c-2.32402,-0.9693 -4.06704,-3.27138 -4.18324,-7.87555c0,-3.63487 1.39441,-6.05811 3.36983,-7.63322c2.32402,-1.81743 5.46145,-2.42325 8.01788,-2.54441c1.85922,0 3.25363,0.36349 4.53184,1.09046zm-9.17989,4.96765c-0.92961,0.9693 -1.51061,2.30208 -1.51061,3.87719c0,1.21162 0.3486,2.18092 0.81341,3.02906c2.78883,-3.02906 5.57765,-5.81579 8.25028,-8.60252c-0.81341,-0.60581 -1.85922,-0.60581 -2.90503,-0.48465c-1.51061,0 -3.36983,0.72697 -4.64804,2.18092z" fill="#FFFFFF" id="svg_23" stroke="null"/>
   </g>
   <g id="svg_24" stroke="null">
    <path class="st4" d="m1176.35703,372.53369c0.4648,0.24232 0.81341,0.48465 1.27821,0.72697c2.20782,-0.84814 4.64804,-1.33278 6.27486,-1.45395c0.81341,-0.12116 1.74302,-0.12116 2.55642,-0.24232c-0.2324,0.60581 -0.3486,1.21162 -0.58101,1.81743c-0.4648,0 -0.92961,0.12116 -1.51061,0.12116c-3.36983,0.48465 -6.73966,2.05976 -6.73966,3.63487c0,2.05976 0.1162,4.11952 0.1162,6.17928c-1.74302,0.60581 -3.36983,1.21162 -5.11285,1.69627c-0.1162,-4.11952 -0.1162,-8.11787 -0.2324,-12.23739c1.39441,0 2.67263,-0.12116 3.95084,-0.24232z" fill="#FFFFFF" id="svg_25" stroke="null"/>
   </g>
   <g id="svg_26" stroke="null">
    <text transform="matrix(0.996076 -0.279643 0.302123 1.16994 138.09 577.926)" class="st4 st5 st6" fill="#FFFFFF" font-family="'TamrinRegular'" font-size="38.0112px" id="svg_8" y="18.72349" x="828.95992" stroke="null">G</text>
    <text transform="matrix(1.05685 -0.149514 0.156174 1.2006 193.397 563.172)" class="st4 st5 st7" fill="#FFFFFF" font-family="'TamrinRegular'" font-size="34.8138px" id="svg_9" y="-75.48315" x="797.79819" stroke="null">W</text>
    <text transform="matrix(1.0895 0.206461 -0.207768 1.19212 1078.4 289.083)" class="st4 st5 st8" fill="#FFFFFF" font-family="'TamrinRegular'" font-size="37.8207px" id="svg_10" y="33.33587" x="77.81618" stroke="null">C</text>
    <text transform="matrix(0.961099 0 0 1.21162 278.685 563.794)" class="st4 st5 st9" fill="#FFFFFF" font-family="'TamrinRegular'" font-size="35.6556px" id="svg_11" y="-181.24455" x="852.92291" stroke="null">A</text>
    <text transform="matrix(0.906601 0.358883 -0.412398 1.13275 382.969 563.3)" class="st4 st5 st10" fill="#FFFFFF" font-family="'TamrinRegular'" font-size="35.5188px" id="svg_12" y="-415.90155" x="727.8251" stroke="null">H</text>
   </g>
  </g>
 </g>
</svg>